<svg width="100" height="100" viewBox="0 0 100 100" xmlns="http://www.w3.org/2000/svg">
  <defs>
    <linearGradient id="bookGradient1" x1="0%" y1="0%" x2="100%" y2="100%">
      <stop offset="0%" style="stop-color:#4F46E5;stop-opacity:1" />
      <stop offset="100%" style="stop-color:#7C3AED;stop-opacity:1" />
    </linearGradient>
    <linearGradient id="bookGradient2" x1="0%" y1="0%" x2="100%" y2="100%">
      <stop offset="0%" style="stop-color:#059669;stop-opacity:1" />
      <stop offset="100%" style="stop-color:#0D9488;stop-opacity:1" />
    </linearGradient>
    <linearGradient id="bookGradient3" x1="0%" y1="0%" x2="100%" y2="100%">
      <stop offset="0%" style="stop-color:#DC2626;stop-opacity:1" />
      <stop offset="100%" style="stop-color:#EA580C;stop-opacity:1" />
    </linearGradient>
    <linearGradient id="circuitGradient" x1="0%" y1="0%" x2="100%" y2="100%">
      <stop offset="0%" style="stop-color:#F59E0B;stop-opacity:1" />
      <stop offset="100%" style="stop-color:#F97316;stop-opacity:1" />
    </linearGradient>
  </defs>
  
  <!-- Background circle for depth -->
  <circle cx="50" cy="50" r="45" fill="none" stroke="#E5E7EB" stroke-width="2" opacity="0.3"/>
  
  <!-- Main book stack -->
  <g transform="translate(25, 25)">
    <!-- Book 1 (bottom) -->
    <rect x="5" y="35" width="35" height="8" rx="1" fill="url(#bookGradient1)" transform="rotate(-2 22.5 39)"/>
    <rect x="6" y="36" width="2" height="6" fill="#312E81" transform="rotate(-2 7 39)" opacity="0.8"/>
    
    <!-- Book 2 (middle) -->
    <rect x="8" y="25" width="32" height="8" rx="1" fill="url(#bookGradient2)" transform="rotate(1 24 29)"/>
    <rect x="9" y="26" width="2" height="6" fill="#064E3B" transform="rotate(1 10 29)" opacity="0.8"/>
    
    <!-- Book 3 (top) -->
    <rect x="12" y="15" width="28" height="8" rx="1" fill="url(#bookGradient3)" transform="rotate(-1 26 19)"/>
    <rect x="13" y="16" width="2" height="6" fill="#7F1D1D" transform="rotate(-1 14 19)" opacity="0.8"/>
  </g>
  
  <!-- Digital/Management overlay elements -->
  <!-- Circuit-like connection lines -->
  <g stroke="url(#circuitGradient)" stroke-width="2" fill="none" opacity="0.8">
    <path d="M 15 20 Q 25 15 35 20" stroke-linecap="round"/>
    <path d="M 65 25 Q 75 20 85 25" stroke-linecap="round"/>
    <path d="M 15 75 Q 25 80 35 75" stroke-linecap="round"/>
    <path d="M 65 70 Q 75 75 85 70" stroke-linecap="round"/>
  </g>
  
  <!-- Connection nodes -->
  <circle cx="15" cy="20" r="3" fill="url(#circuitGradient)"/>
  <circle cx="35" cy="20" r="3" fill="url(#circuitGradient)"/>
  <circle cx="85" cy="25" r="3" fill="url(#circuitGradient)"/>
  <circle cx="15" cy="75" r="3" fill="url(#circuitGradient)"/>
  <circle cx="35" cy="75" r="3" fill="url(#circuitGradient)"/>
  <circle cx="85" cy="70" r="3" fill="url(#circuitGradient)"/>
  
  <!-- Management/Organization symbol (gear-like element) -->
  <g transform="translate(65, 45)">
    <circle cx="0" cy="0" r="12" fill="none" stroke="url(#circuitGradient)" stroke-width="2.5" opacity="0.9"/>
    <circle cx="0" cy="0" r="6" fill="url(#circuitGradient)" opacity="0.2"/>
    <!-- Gear teeth -->
    <g stroke="url(#circuitGradient)" stroke-width="2" opacity="0.9">
      <line x1="0" y1="-12" x2="0" y2="-15"/>
      <line x1="8.5" y1="-8.5" x2="10.6" y2="-10.6"/>
      <line x1="12" y1="0" x2="15" y2="0"/>
      <line x1="8.5" y1="8.5" x2="10.6" y2="10.6"/>
      <line x1="0" y1="12" x2="0" y2="15"/>
      <line x1="-8.5" y1="8.5" x2="-10.6" y2="10.6"/>
      <line x1="-12" y1="0" x2="-15" y2="0"/>
      <line x1="-8.5" y1="-8.5" x2="-10.6" y2="-10.6"/>
    </g>
  </g>
  
  <!-- Subtle highlight effects -->
  <g opacity="0.6">
    <ellipse cx="35" cy="25" rx="8" ry="2" fill="white" opacity="0.3" transform="rotate(-1 35 25)"/>
    <ellipse cx="40" cy="35" rx="6" ry="1.5" fill="white" opacity="0.3" transform="rotate(1 40 35)"/>
  </g>
</svg>